<!DOCTYPE svg PUBLIC "-//W3C//DTD SVG 1.1//EN" "http://www.w3.org/Graphics/SVG/1.1/DTD/svg11.dtd">

<!-- Uploaded to: SVG Repo, www.svgrepo.com, Transformed by: SVG Repo Mixer Tools -->
<svg height="800px" width="800px" version="1.1" id="Capa_1" xmlns="http://www.w3.org/2000/svg" xmlns:xlink="http://www.w3.org/1999/xlink" viewBox="0 0 400.029 400.029" xml:space="preserve" fill="#ffffff" stroke="#ffffff">

<g id="SVGRepo_bgCarrier" stroke-width="0"/>

<g id="SVGRepo_tracerCarrier" stroke-linecap="round" stroke-linejoin="round"/>

<g id="SVGRepo_iconCarrier"> <path style="fill:#000000;" d="M365.779,261.759c-6.349-12.17-17.666-20.686-30.876-23.471V205.66 c0-12.857-5.375-24.952-14.836-33.582V79.203c0-5.435-2.116-10.54-5.955-14.373l-58.88-58.885C251.391,2.111,246.287,0,240.863,0 H63.679C44.594,0,29.067,15.527,29.067,34.612v312.095c0,19.086,15.526,34.613,34.611,34.613h174.948 c8.548,11.732,22.226,18.709,36.775,18.709c14.862,0,28.813-7.277,37.318-19.468l50.037-71.727 C372.49,294.881,373.648,276.843,365.779,261.759z M239.374,106.097h38.08v54.063h-16.051c-25.089,0-45.5,20.411-45.5,45.5v32.628 c-13.213,2.784-24.528,11.299-30.874,23.466c-7.871,15.084-6.714,33.124,3.021,47.08l20.279,29.072H71.681V43.414h143.088V81.49 C214.768,95.059,225.807,106.097,239.374,106.097z M216.945,278.408c1.642-3.149,4.869-5.105,8.422-5.105h26.535V205.66 c0-5.238,4.262-9.5,9.5-9.5h28c5.238,0,9.5,4.262,9.5,9.5v67.644h26.536c3.552,0,6.779,1.957,8.422,5.106 c1.644,3.15,1.401,6.916-0.63,9.829l-50.036,71.725c-1.776,2.546-4.69,4.065-7.793,4.065c-3.103,0-6.015-1.52-7.791-4.064 l-50.035-71.727C215.543,285.324,215.301,281.559,216.945,278.408z"/> </g>

</svg>